<svg width="283" height="329" viewBox="0 0 283 329" fill="none" xmlns="http://www.w3.org/2000/svg">
<path d="M33.1665 8.81519C29.5846 20.134 25.7564 49.2629 31.0004 78.5388C33.0535 90.0002 36.38 100.953 41.3471 110.698C50.0536 98.4129 59.5551 87.3077 69.2631 77.7615C85.4047 61.889 102.919 49.5175 119.372 43.3386C135.387 37.3238 154.384 35.9923 167.866 49.4744C172.717 54.3254 174.716 61.1815 175.68 66.4597C176.753 72.3311 177.03 79.1024 176.628 86.1365C175.826 100.187 172.22 116.868 165.022 132.048C157.847 147.178 146.548 161.928 129.727 170.137C112.49 178.55 91.5644 179.072 67.5737 169.534C59.0362 166.14 51.5538 161.797 45.0044 156.744C36.168 174.761 29.8438 194.175 27.5688 213.823C26.4524 223.465 28.5409 228.413 30.8501 231.177C33.3557 234.175 38.0769 236.945 46.5483 238.314C63.9295 241.124 90.1792 236.927 119.684 227.981C139.542 221.96 159.989 214.067 178.764 205.66C177.986 199.589 177.32 193.437 176.79 187.346C175.465 172.088 174.925 156.585 175.615 142.909C176.281 129.695 178.153 116.525 182.678 107.034C191.504 88.5219 204.92 77.3537 221.281 75.9158C236.813 74.5507 250.965 82.3803 261.105 92.6179C280.835 112.538 293.442 150.614 270.588 180.378C266.025 186.32 258.04 192.525 249.213 198.381C239.985 204.503 228.468 211.123 215.617 217.713C213.218 218.942 210.767 220.173 208.269 221.404C210.752 235.271 213.678 246.749 216.455 253.431L216.692 253.991L216.843 254.342L216.974 254.7C229.468 288.85 235.517 315.113 237.043 324.653L210.581 328.886C209.385 321.412 203.877 296.961 191.913 264.203C188.704 256.628 185.719 245.63 183.191 232.991C165.306 240.737 146.197 247.946 127.459 253.628C97.2405 262.79 66.0219 268.61 42.2719 264.77C30.1779 262.815 18.4173 258.092 10.2856 248.361C1.9576 238.395 -0.746929 225.376 0.94771 210.74C3.99231 184.446 13.0829 159.008 25.4682 136.179C14.1491 120.062 7.83152 101.19 4.62056 83.2644C-1.36266 49.8618 2.68005 16.3289 7.61666 0.729248L33.1665 8.81519ZM242.065 111.476C235.314 104.661 228.538 102.181 223.627 102.612C219.545 102.971 213.001 105.706 206.87 118.566C204.748 123.015 203.014 131.689 202.38 144.259C201.77 156.365 202.235 170.585 203.49 185.027C203.734 187.835 204.005 190.628 204.301 193.394C216.143 187.289 226.424 181.34 234.397 176.05C242.976 170.358 247.681 166.206 249.331 164.056C261.147 148.668 256.116 125.663 242.065 111.476ZM148.441 67.991C145.844 65.8142 140.262 64.1202 128.793 68.4275C117.007 72.854 102.577 82.5873 88.0522 96.8699C77.5405 107.206 67.4011 119.505 58.4926 133.111C63.9128 137.829 70.203 141.739 77.475 144.631C95.9061 151.959 108.805 150.528 117.972 146.053C127.556 141.376 135.241 132.304 140.807 120.565C146.35 108.875 149.242 95.6372 149.873 84.6072C150.187 79.101 149.914 74.5407 149.318 71.2761C148.964 69.3403 148.589 68.3549 148.441 67.991Z" fill="#EEFDFF"/>
</svg>
