<svg width="214" height="180" viewBox="0 0 214 180" fill="none" xmlns="http://www.w3.org/2000/svg">
<path d="M50.3588 179.895C84.2557 179.895 100.761 148.561 99.9888 117.961C99.2351 88.6997 82.6729 60.1539 50.3588 60.1539C18.0446 60.1916 1.48246 88.6997 0.728781 117.961C-0.0625854 148.561 16.4242 179.895 50.3588 179.895ZM50.3211 84.5544C66.6384 84.5544 74.9477 100.947 75.5695 117.961C76.1536 133.751 69.5212 155.57 50.3211 155.57C48.0412 155.57 45.9309 155.25 43.9902 154.685C47.8905 149.56 50.3588 142.117 50.3588 133.845C50.3588 118.357 41.8045 105.808 31.2341 105.808C29.6702 105.808 28.1817 106.11 26.7308 106.618C29.934 94.3334 37.7158 84.5733 50.3211 84.5733V84.5544Z" fill="#EBE81A"/>
<path d="M163.43 165.632C197.327 165.632 213.833 134.298 213.06 103.698C212.306 74.4366 195.744 45.8909 163.43 45.8909C131.116 45.9286 114.554 74.4366 113.8 103.698C113.009 134.298 129.495 165.632 163.43 165.632ZM163.392 70.2913C179.71 70.2913 188.019 86.6839 188.641 103.698C189.225 119.224 182.819 140.516 164.391 141.269C168.442 136.126 171.023 128.551 171.023 120.072C171.023 104.584 162.469 92.0351 151.899 92.0351C146.623 92.0351 141.856 95.1629 138.389 100.231C139.972 84.4983 148.187 70.2913 163.392 70.2913Z" fill="#EBE81A"/>
<path d="M175.263 0.519043L118.529 22.3947L118.039 36.1871L174.283 28.1038L175.263 0.519043Z" fill="#EBE81A"/>
<path d="M30.1792 42.1784L30.6691 28.386L87.4025 6.51038L86.4228 34.0763L30.1792 42.1784Z" fill="#EBE81A"/>
</svg>
